<svg height="24" viewBox="0 0 24 24" width="24" xmlns="http://www.w3.org/2000/svg"><path d="m6.94221099 14.9002344c.05585111 0 .10907112.0105244.15822487.0295401-.05322.0308557-.08933785.0885605-.08933785.1545174 0 .0986065.07988981.1783767.17849631.1783767.06751167 0 .12611347-.0374932.15649074-.0928659.0213478.0516055.03330735.108234.03330735.1676729 0 .2414634-.19577786.4371814-.43718142.4371814-.24140355 0-.43724121-.195718-.43724121-.4371814 0-.2415231.19583766-.4372412.43724121-.4372412zm0 1.1851318c-.41242514 0-.74801016-.3354654-.74801016-.7478906 0-.4124251.33558502-.7479503.74801016-.7479503.41236535 0 .74789057.3355252.74789057.7479503 0 .4124252-.33552522.7478906-.74789057.7478906zm13.44373211-4.9015625c-2.1239566 5.6279857-6.9206338 8.1348273-12.57570784 8.1348273-2.67200304 0-4.80367354-.9190318-6.16700264-2.4514091l.01004603-.0066376c.39281147.0199127.7443027.0266698 1.10111592.0266698.32625657 0 .64539721-.0034084.94097753-.0200322.02571304-.0014352.05788423-.005023.08341787-.0066376.00023919-.0000598.09119158-.0059797.04670205-.0066973.75117944-.0463433 1.33343022-.1507502 1.87639387-.3056862.00011959-.0000598.00023919-.0000598.00035878-.0001196.09866631-.0282245.19434272-.057944.28601268-.0896966.10255316-.0355797.15684952-.1475211.12132965-.2500742-.03551986-.102613-.14740147-.1570289-.25001442-.1213297-.68964755.2389519-1.59947045.3705069-2.71451925.3952034h-.00029899c-.56736113.0125575-1.18758349-.0023919-1.86024847-.0456257h-.0000598c-.13914938-.1857916-.26795376-.3788786-.38575534-.5788423l-.18621022-.3404884c-.56257731-1.1060194-.80888428-2.3980695-.67816638-3.8012239h16.36222147c1.3441938 0 2.656934-.5016434 3.2799071-1.0550119-1.1163046-.90767016-1.0056787-3.06367834-.294205-3.8863759.6174716.496142 1.6131641 1.54122742 1.4419033 2.87160796.7770121-.39059896 2.1264681-.58362613 3.175859.02194577-.6588517 1.28601057-2.1070936 1.67021117-3.6140569 1.51563397zm-18.13085981.1350832h2.21263666v-2.2127563h-2.21263666zm2.5530055 0h2.21287585v-2.2127563h-2.21287585zm0-2.55312514h2.21287585v-2.21269646h-2.21287585zm2.5531849 2.55312514h2.21275625v-2.2127563h-2.21275625zm0-2.55312514h2.21275625v-2.21269646h-2.21275625zm2.5530653 2.55312514h2.21275621v-2.2127563h-2.21275621zm0-2.55312514h2.21275621v-2.21269646h-2.21275621zm0-2.5530055h2.21275621v-2.21275626h-2.21275621zm2.55306531 5.10613064h2.2127562v-2.2127563h-2.2127562z" fill="#0db7ed" fill-rule="evenodd"/></svg>